# xmcd
#
# Track frame offsets: 
#        150
#        6352
#        25988
#        40890
#        59760
#        76416
#        95698
#        108345
#        126287
#        146125
#        163407
#        181214
#        184875
#        200011
#        220544
#        231511
#        250058
#        268924
#
# Disc length: 3871 seconds
#
# Revision: 0
# Processed by: cddbd v1.5.2PL0 Copyright (c) Steve Scherf et al.
# Submitted via: ExactAudioCopyFreeDBPlugin 1.0
#
DISCID=140f1d12
DTITLE=K.I.Z. - Sexismus gegen Rechts
DYEAR=2009
DGENRE=Rap
TTITLE0=Rohmilchkäse Skit
TTITLE1=Lass die Sau raus
TTITLE2=Halbstark
TTITLE3=Rauher Wind
TTITLE4=Einritt
TTITLE5=Ohrfeige
TTITLE6=Straight Outta Kärnten
TTITLE7=Selbstjustiz
TTITLE8=Scheiterhaufen
TTITLE9=Hurensohn Episode 1
TTITLE10=Preisschild
TTITLE11="Auch Nutten wollen Pendlerpauschale!" Skit
TTITLE12=Ringelpiez mit Anscheissen feat. M-Hot
TTITLE13=Das System feat. Sido
TTITLE14=Klopapier
TTITLE15=So alt
TTITLE16=Töten
TTITLE17=Halbstark RMX feat. Corus86, Orgi69 and DJ Graf
EXTD=
EXTT0=
EXTT1=
EXTT2=
EXTT3=
EXTT4=
EXTT5=
EXTT6=
EXTT7=
EXTT8=
EXTT9=
EXTT10=
EXTT11=
EXTT12=
EXTT13=
EXTT14=
EXTT15=
EXTT16=
EXTT17=
PLAYORDER=
